{"asset":{"version":"2.0","generator":"THREE.GLTFExporter"},"scenes":[{"nodes":[1],"name":"AuxScene"}],"scene":0,"nodes":[{"name":"collider","mesh":1},{"matrix":[2,0,0,0,0,0.5,0,0,0,0,2,0,-20,0,-20,1],"mesh":0,"children":[0]}],"bufferViews":[{"buffer":0,"byteOffset":0,"byteLength":44856,"target":34962,"byteStride":12},{"buffer":0,"byteOffset":44856,"byteLength":29904,"target":34962,"byteStride":8},{"buffer":0,"byteOffset":74760,"byteLength":44856,"target":34962,"byteStride":12},{"buffer":0,"byteOffset":119616,"byteLength":4800,"target":34963},{"buffer":0,"byteOffset":124416,"byteLength":2676,"target":34963},{"buffer":0,"byteOffset":127092,"byteLength":44856,"target":34962,"byteStride":12},{"buffer":0,"byteOffset":171948,"byteLength":29904,"target":34962,"byteStride":8},{"buffer":0,"byteOffset":201852,"byteLength":44856,"target":34962,"byteStride":12}],"buffers":[{"byteLength":246708,"uri":"data:application/octet-stream;base64,"}],"accessors":[{"bufferView":0,"componentType":5126,"count":3738,"max":[20,12,20],"min":[0,-4,0],"type":"VEC3"},{"bufferView":1,"componentType":5126,"count":3738,"max":[10,10],"min":[0,-3],"type":"VEC2"},{"bufferView":2,"componentType":5126,"count":3738,"max":[1,1,1],"min":[-1,0,-1],"type":"VEC3"},{"bufferView":3,"componentType":5123,"count":2400,"max":[2399],"min":[0],"type":"SCALAR"},{"bufferView":4,"componentType":5123,"count":1338,"max":[3737],"min":[2400],"type":"SCALAR"},{"bufferView":5,"componentType":5126,"count":3738,"max":[20,12,20],"min":[0,-4,0],"type":"VEC3"},{"bufferView":6,"componentType":5126,"count":3738,"max":[10,10],"min":[0,-3],"type":"VEC2"},{"bufferView":7,"componentType":5126,"count":3738,"max":[1,1,1],"min":[-1,0,-1],"type":"VEC3"}],"materials":[{"pbrMetallicRoughness":{"metallicFactor":0.823899,"roughnessFactor":0.540881,"baseColorTexture":{"index":0}},"normalTexture":{"index":1,"scale":1},"name":"metal"},{"pbrMetallicRoughness":{"metallicFactor":0.666667,"roughnessFactor":0.226415,"baseColorTexture":{"index":2}},"normalTexture":{"index":3,"scale":1},"name":"hexagon"},{"pbrMetallicRoughness":{"baseColorFactor":[0.9333333333333333,0.9333333333333333,0.9333333333333333,1],"metallicFactor":0.5,"roughnessFactor":0.5}}],"textures":[{"sampler":0,"source":0},{"sampler":1,"source":1},{"sampler":2,"source":2},{"sampler":3,"source":3}],"samplers":[{"magFilter":9729,"minFilter":9729,"wrapS":10497,"wrapT":10497},{"magFilter":9729,"minFilter":9729,"wrapS":10497,"wrapT":10497},{"magFilter":9729,"minFilter":9729,"wrapS":10497,"wrapT":10497},{"magFilter":9729,"minFilter":9729,"wrapS":10497,"wrapT":10497}],"images":[{"mimeType":"image/jpeg","uri":"data:image/jpeg;base64,"},{"mimeType":"image/jpeg","uri":"data:image/jpeg;base64,"},{"mimeType":"image/png","uri":"data:image/png;base64,"},{"mimeType":"image/jpeg","uri":"data:image/jpeg;base64,"}],"meshes":[{"primitives":[{"mode":4,"attributes":{"POSITION":0,"TEXCOORD_0":1,"NORMAL":2},"indices":3,"material":0},{"mode":4,"attributes":{"POSITION":0,"TEXCOORD_0":1,"NORMAL":2},"indices":4,"material":1}]},{"primitives":[{"mode":4,"attributes":{"POSITION":5,"TEXCOORD_0":6,"NORMAL":7},"material":2}]}]}